<svg xmlns="http://www.w3.org/2000/svg" viewBox="0 0 24 24" fill="currentColor"><path d="M12 1.5a10.5 10.5 0 0 0-3.32 20.47c.52.1.72-.23.72-.5v-1.95c-2.94.64-3.56-1.27-3.56-1.27-.48-1.23-1.18-1.56-1.18-1.56-.96-.66.07-.65.07-.65 1.07.08 1.63 1.1 1.63 1.1.95 1.63 2.5 1.16 3.1.89.1-.69.37-1.16.68-1.43-2.35-.27-4.82-1.18-4.82-5.24 0-1.16.41-2.1 1.09-2.85-.11-.27-.47-1.36.1-2.83 0 0 .9-.29 2.94 1.09a10.2 10.2 0 0 1 5.36 0c2.03-1.38 2.93-1.09 2.93-1.09.58 1.47.22 2.56.11 2.83.68.75 1.09 1.69 1.09 2.85 0 4.07-2.48 4.96-4.84 5.23.38.33.72.98.72 1.98v2.94c0 .27.19.6.73.5A10.5 10.5 0 0 0 12 1.5Z"/></svg>
